<svg width="20" height="20" viewBox="0 0 20 20" fill="none" xmlns="http://www.w3.org/2000/svg">
<path d="M9.9998 7.50019V10.8335M9.9998 14.1669H10.0081M8.8459 3.24329L1.99183 15.0821C1.61166 15.7388 1.42157 16.0671 1.44967 16.3366C1.47417 16.5716 1.59731 16.7852 1.78844 16.9242C2.00757 17.0835 2.38696 17.0835 3.14573 17.0835H16.8539C17.6126 17.0835 17.992 17.0835 18.2112 16.9242C18.4023 16.7852 18.5254 16.5716 18.5499 16.3366C18.578 16.0671 18.3879 15.7388 18.0078 15.0821L11.1537 3.24329C10.7749 2.58899 10.5855 2.26184 10.3384 2.15196C10.1228 2.05612 9.87677 2.05612 9.66122 2.15196C9.41411 2.26184 9.22471 2.58899 8.8459 3.24329Z" stroke="currentColor" stroke-width="1.5" stroke-linecap="round" stroke-linejoin="round"/>
</svg>
