<svg width="16" height="16" viewBox="0 0 16 16" fill="none" xmlns="http://www.w3.org/2000/svg">
<path d="M4.06283 7.48603C4.02139 7.21898 3.99989 6.9454 3.99989 6.66683C3.99989 3.72131 6.40342 1.3335 9.36831 1.3335C12.3332 1.3335 14.7367 3.72131 14.7367 6.66683C14.7367 7.33221 14.6141 7.96913 14.39 8.5565C14.3435 8.67849 14.3202 8.73948 14.3097 8.7871C14.2992 8.83429 14.2951 8.86748 14.294 8.9158C14.2929 8.96456 14.2995 9.01828 14.3127 9.12571L14.5811 11.3058C14.6101 11.5419 14.6247 11.6599 14.5854 11.7456C14.551 11.8208 14.4899 11.8805 14.414 11.9132C14.3273 11.9504 14.2097 11.9332 13.9744 11.8987L11.8509 11.5874C11.74 11.5712 11.6846 11.5631 11.6341 11.5633C11.5841 11.5636 11.5496 11.5673 11.5007 11.5776C11.4513 11.588 11.3882 11.6116 11.2619 11.6589C10.673 11.8795 10.0349 12.0002 9.36831 12.0002C9.08952 12.0002 8.81569 11.9791 8.54836 11.9383M5.08764 14.6668C7.06424 14.6668 8.66659 13.0252 8.66659 11.0002C8.66659 8.97512 7.06424 7.3335 5.08764 7.3335C3.11104 7.3335 1.50869 8.97512 1.50869 11.0002C1.50869 11.4072 1.57344 11.7988 1.69295 12.1646C1.74347 12.3193 1.76873 12.3966 1.77702 12.4495C1.78568 12.5046 1.7872 12.5356 1.78397 12.5913C1.78088 12.6447 1.76753 12.705 1.74081 12.8257L1.33325 14.6668L3.32979 14.3942C3.43876 14.3793 3.49325 14.3718 3.54083 14.3722C3.59093 14.3725 3.61752 14.3752 3.66666 14.385C3.71332 14.3943 3.78269 14.4188 3.92143 14.4678C4.28698 14.5968 4.67932 14.6668 5.08764 14.6668Z" stroke="currentColor" stroke-linecap="round" stroke-linejoin="round"/>
</svg>
