<svg width="16" height="16" viewBox="0 0 16 16" fill="none" xmlns="http://www.w3.org/2000/svg">
    <path d="M14.6667 5.95392C14.6667 5.55004 14.6667 5.34811 14.5868 5.2546C14.5175 5.17346 14.4136 5.1304 14.3072 5.13877C14.1846 5.14842 14.0418 5.29121 13.7562 5.5768L11.3333 7.99967L13.7562 10.4226C14.0418 10.7081 14.1846 10.8509 14.3072 10.8606C14.4136 10.8689 14.5175 10.8259 14.5868 10.7448C14.6667 10.6512 14.6667 10.4493 14.6667 10.0454V5.95392Z" stroke="currentColor" stroke-width="1.5" stroke-linecap="round" stroke-linejoin="round"/>
    <path d="M1.33334 6.53301C1.33334 5.4129 1.33334 4.85285 1.55132 4.42503C1.74307 4.0487 2.04903 3.74274 2.42535 3.55099C2.85318 3.33301 3.41323 3.33301 4.53334 3.33301H8.13334C9.25344 3.33301 9.81349 3.33301 10.2413 3.55099C10.6176 3.74274 10.9236 4.0487 11.1153 4.42503C11.3333 4.85285 11.3333 5.4129 11.3333 6.53301V9.46634C11.3333 10.5864 11.3333 11.1465 11.1153 11.5743C10.9236 11.9506 10.6176 12.2566 10.2413 12.4484C9.81349 12.6663 9.25344 12.6663 8.13334 12.6663H4.53334C3.41323 12.6663 2.85318 12.6663 2.42535 12.4484C2.04903 12.2566 1.74307 11.9506 1.55132 11.5743C1.33334 11.1465 1.33334 10.5864 1.33334 9.46634V6.53301Z" stroke="currentColor" stroke-width="1.5" stroke-linecap="round" stroke-linejoin="round"/>
</svg>
